<?xml version="1.0" encoding="utf-8"?>
<!-- Generator: Adobe Illustrator 21.0.0, SVG Export Plug-In . SVG Version: 6.00 Build 0)  -->
<svg version="1.1" id="Слой_2" xmlns="http://www.w3.org/2000/svg" xmlns:xlink="http://www.w3.org/1999/xlink" x="0px" y="0px"
	 viewBox="0 0 841.9 280.2" style="enable-background:new 0 0 841.9 280.2;" xml:space="preserve">
<style type="text/css">
	.st0{fill:#020202;}
	.st1{fill:#86B63A;}
	.st2{fill:#A5C33B;}
	.st3{fill:#D8B332;}
	.st4{fill:#73AF3D;}
	.st5{fill:#ACC538;}
	.st6{fill:#D1AF36;}
	.st7{fill:#C0C438;}
	.st8{fill:#F4A24C;}
	.st9{clip-path:url(#SVGID_2_);}
	.st10{fill:#266CAD;}
	.st11{fill:#63BFCC;}
	.st12{fill:#2AA67D;}
	.st13{fill:#4DB6DD;}
	.st14{fill:#58AF74;}
	.st15{fill:#67C4E6;}
	.st16{fill:#46AE8A;}
	.st17{fill:#009762;}
	.st18{fill:#0F9D5B;}
	.st19{fill:#47A44D;}
	.st20{fill:#FFFFFF;stroke:#000000;stroke-miterlimit:10;}
	.st21{fill:#6DA5D5;}
	.st22{fill:none;}
	.st23{clip-path:url(#SVGID_2_);fill:#81CBDA;}
	.st24{fill:#0C8256;}
	.st25{fill:none;stroke:#010202;stroke-miterlimit:10;}
</style>
<g>
	<g>
		<g>
			<g>
				<polygon class="st0" points="558,280.2 479.2,280.2 463.9,239.9 371.3,239.9 371.3,239.6 369.6,238.9 370.3,237 466,237 
					481.2,277.3 553.6,277.3 491.4,126 494.2,124.9 				"/>
			</g>
			<g>
				
					<rect x="369.5" y="222.2" transform="matrix(0.9687 -0.2481 0.2481 0.9687 -42.0743 113.451)" class="st0" width="119.2" height="2.9"/>
			</g>
			<g>
				
					<rect x="410.6" y="201.4" transform="matrix(8.691014e-02 -0.9962 0.9962 8.691014e-02 242.4028 670.2222)" class="st0" width="152.4" height="2.9"/>
			</g>
			<g>
				<polygon class="st0" points="554.8,279.8 465.2,189.1 466.4,238.4 463.5,238.5 462.1,181.7 556.9,277.7 				"/>
			</g>
		</g>
		<g>
			<polygon class="st1" points="395,0 430.3,51.8 442.8,0 			"/>
		</g>
		<g>
			<polygon class="st2" points="395,0 353,106.2 343.5,130.3 419.3,110.4 430.3,51.8 			"/>
		</g>
		<g>
			<polygon class="st3" points="442.8,0 430.3,51.8 419.3,110.4 494.3,125.5 			"/>
		</g>
		<g>
			<polygon class="st4" points="419.3,110.4 396.5,174.7 329.5,165.6 343.5,130.3 			"/>
		</g>
		<g>
			<polygon class="st5" points="329.5,165.6 396.5,174.7 442,174.7 456.8,188.4 372.3,237 			"/>
		</g>
		<g>
			<polygon class="st6" points="329.5,165.6 372.3,237 357,277.3 305.8,225.5 			"/>
		</g>
		<g>
			<polygon class="st7" points="357,277.3 305.8,225.5 285.3,277.3 			"/>
		</g>
		<g>
			<polygon class="st8" points="419.3,110.4 442,174.7 456.8,188.4 469.2,174.7 494.3,125.5 			"/>
		</g>
	</g>
	<g>
		<defs>
			<path id="SVGID_1_" d="M107.6,0C85.1,7.9,62.7,15.8,40.2,23.7C26.9,40.7,13.5,57.6,0.1,74.6c5.2,15.6,10.3,31.2,15.5,46.9
				C30,134.7,44.4,148,58.8,161.3c28.4,4.3,56.8,8.6,85.2,12.9c8,6.4,16.1,12.8,24.1,19.2c-5.8,6.3-11.5,12.7-17.3,19
				c-18.3,0.7-36.5,1.4-54.8,2c-2.8-7.3-5.5-14.5-8.3-21.8c-29.3-2.5-58.5-5.1-87.8-7.6c14.5,24.8,29,49.5,43.6,74.3
				c25.1,6.9,50.3,13.9,75.4,20.8c28.2-6.8,56.3-13.6,84.5-20.3c15.4-20,30.9-40.1,46.3-60.1c-10.5-19.3-21-38.6-31.5-57.8
				c-20.9-7.5-41.9-15.1-62.8-22.6c-20.3-2.3-40.6-4.5-60.8-6.8c-5.5-7.7-11-15.4-16.5-23C87,82,95.8,74.6,104.7,67.1
				c13.8,0.2,27.6,0.5,41.4,0.7c2.7,6.3,5.3,12.6,8,18.9c27.9,0.5,55.9,0.9,83.8,1.4c-14.1-22.4-28.3-44.7-42.4-67.1
				C166.2,14,136.9,7,107.6,0z"/>
		</defs>
		<clipPath id="SVGID_2_">
			<use xlink:href="#SVGID_1_"  style="overflow:visible;"/>
		</clipPath>
		<g class="st9">
			<g>
				<polygon class="st10" points="190.5,8.2 155.5,75 -14.2,61 81.4,-7.9 				"/>
			</g>
			<g>
				<polygon class="st11" points="165.3,37.2 183.4,70 222.1,33.9 178,8.2 				"/>
			</g>
			<g>
				<polygon class="st12" points="146,67.8 165.3,37.2 194.6,59.6 219.2,22.6 265.7,107.1 252,107.1 190.5,109.4 186.9,99.4 
					181.1,89 175.3,81.8 182.9,72.4 173.4,66.2 163.4,61.7 				"/>
			</g>
			<g>
				<polygon class="st13" points="-5.6,40.9 -9.1,109.7 27.7,156.2 60.6,170 122.5,78.5 40.8,67.1 48.7,71.6 				"/>
			</g>
			<g>
				<polygon class="st14" points="-44.3,141.9 63.6,174 151.1,209.7 206.9,261.7 139.7,326 28.8,254.5 				"/>
			</g>
			<g>
				<polygon class="st15" points="-0.3,35.3 58.8,47.1 49.5,112.5 60.6,170 -10.2,128.2 				"/>
			</g>
			<g>
				<polygon class="st16" points="94.6,112.5 58.8,161.3 144,174.2 155.5,119.3 				"/>
			</g>
			<g>
				<polygon class="st17" points="155.4,230 216.4,267.6 273.5,189.3 222.7,154.7 				"/>
			</g>
			<g>
				<polygon class="st18" points="133.7,146 155.4,230 268.8,180.9 231.7,132.3 				"/>
			</g>
			<g>
				<polygon class="st19" points="235.7,140.5 133.7,146 155.5,119.3 				"/>
			</g>
			<path class="st20" d="M64.1,112.3"/>
			<path class="st20" d="M142.4,63.6"/>
			<path class="st20" d="M154.4,85.9"/>
			<path class="st20" d="M169.5,113.6"/>
			<polygon class="st12" points="139,94.8 146,67.8 163.9,40.8 237.9,88.1 			"/>
			<polygon class="st21" points="165.3,37.2 78.2,31.6 25.4,78.5 95.1,92.2 78.2,89.5 146,67.8 			"/>
			<line class="st22" x1="67.3" y1="134.1" x2="68.6" y2="151.8"/>
		</g>
		<path class="st23" d="M58.8,161.3c5.9-8,29.9-40.8,35.8-48.8c20.3,2.3,40.6,4.5,60.8,6.8c-7.3,9-14.5,18-21.8,27
			C108.7,151.3,83.8,156.3,58.8,161.3z"/>
		<g class="st9">
			<polygon class="st16" points="77.4,192.5 0,185 28.8,276.5 98.9,212.1 			"/>
		</g>
		<g class="st9">
			<polygon class="st18" points="58.4,170.4 -19.1,163 43.6,259.3 79.8,190.1 			"/>
		</g>
		<g class="st9">
			<polygon class="st24" points="155.4,230 98.9,212.1 33.9,268.8 116.6,283.5 			"/>
		</g>
	</g>
	<g>
		<g>
			<defs>
				<path id="SVGID_3_" d="M699.7,0c-22.5,7.9-44.9,15.8-67.4,23.7c-13.4,16.9-26.7,33.9-40.1,50.8c5.2,15.6,10.3,31.2,15.5,46.9
					c14.4,13.3,28.8,26.6,43.2,39.9c28.4,4.3,56.8,8.6,85.2,12.9c8,6.4,16.1,12.8,24.1,19.2c-5.8,6.3-11.5,12.7-17.3,19
					c-18.3,0.7-36.5,1.4-54.8,2c-2.8-7.3-5.5-14.5-8.3-21.8c-29.3-2.5-58.5-5.1-87.8-7.6c14.5,24.8,29,49.5,43.6,74.3
					c25.1,6.9,50.3,13.9,75.4,20.8c28.2-6.8,56.3-13.6,84.5-20.3c15.4-20,30.9-40.1,46.3-60.1c-10.5-19.3-21-38.6-31.5-57.8
					c-20.9-7.5-41.9-15.1-62.8-22.6c-20.3-2.3-40.6-4.5-60.8-6.8c-5.5-7.7-11-15.4-16.5-23c8.8-7.5,17.7-14.9,26.5-22.4
					c13.8,0.2,27.6,0.5,41.4,0.7c2.7,6.3,5.3,12.6,8,18.9c27.9,0.5,55.9,0.9,83.8,1.4c-14.1-22.4-28.3-44.7-42.4-67.1
					C758.3,14,729,7,699.7,0z"/>
			</defs>
			<clipPath id="SVGID_4_">
				<use xlink:href="#SVGID_3_"  style="overflow:visible;"/>
			</clipPath>
			<use xlink:href="#SVGID_3_"  style="overflow:visible;fill:none;stroke:#010202;stroke-miterlimit:10;"/>
		</g>
		<line class="st25" x1="787.9" y1="67.5" x2="830" y2="88.1"/>
		<line class="st25" x1="787.9" y1="67.5" x2="787.6" y2="21"/>
		<line class="st25" x1="699.7" y1="0" x2="738.2" y2="67.8"/>
		<line class="st25" x1="653.5" y1="51.8" x2="592.2" y2="74.6"/>
		<line class="st25" x1="632.3" y1="23.7" x2="653.5" y2="51.8"/>
		<line class="st25" x1="699.7" y1="0" x2="653.5" y2="51.8"/>
		<line class="st25" x1="651" y1="161.3" x2="686.8" y2="112.5"/>
		<line class="st25" x1="607.7" y1="121.4" x2="765.7" y2="156.3"/>
		<line class="st25" x1="795.6" y1="259.8" x2="657.2" y2="236.1"/>
		<line class="st25" x1="679.9" y1="192.6" x2="657.2" y2="236.1"/>
		<line class="st25" x1="592.1" y1="185" x2="657.2" y2="236.1"/>
		<line class="st25" x1="635.7" y1="259.3" x2="657.2" y2="236.1"/>
		<line class="st25" x1="711.1" y1="280.1" x2="657.2" y2="236.1"/>
		<line class="st25" x1="743" y1="212.4" x2="711.1" y2="280.1"/>
		<line class="st25" x1="795.6" y1="259.8" x2="743" y2="212.4"/>
		<polyline class="st25" points="760.3,193.4 765.7,156.3 747.6,119.3 		"/>
		<polyline class="st25" points="736.2,174.2 765.7,156.3 810.4,141.9 		"/>
		<line class="st25" x1="841.9" y1="199.7" x2="760.3" y2="193.4"/>
		<line class="st25" x1="745.5" y1="87.2" x2="787.9" y2="67.5"/>
		<line class="st25" x1="607.7" y1="121.4" x2="670.3" y2="89.5"/>
		<line class="st25" x1="696.8" y1="67.1" x2="653.5" y2="51.8"/>
		<line class="st25" x1="670.3" y1="89.5" x2="592.2" y2="74.6"/>
		<line class="st25" x1="795.6" y1="259.8" x2="819.2" y2="158"/>
		<line class="st25" x1="738.2" y1="67.8" x2="787.6" y2="21"/>
		<line class="st25" x1="688.2" y1="214.4" x2="711.1" y2="280.1"/>
	</g>
</g>
</svg>
